<?xml version="1.0" encoding="UTF-8"?>
<svg version="1.1" xmlns="http://www.w3.org/2000/svg" width="273" height="251">
<path d="M0 0 C90.09 0 180.18 0 273 0 C273 82.83 273 165.66 273 251 C182.91 251 92.82 251 0 251 C0 168.17 0 85.34 0 0 Z " fill="#B1F0BA" transform="translate(0,0)"/>
<path d="M0 0 C0.99 0 1.98 0 3 0 C3 0.66 3 1.32 3 2 C3.969375 1.814375 4.93875 1.62875 5.9375 1.4375 C7.4534375 1.2209375 7.4534375 1.2209375 9 1 C10 2 10 2 10.02172852 5.41821289 C9.97938986 6.93651675 9.93136589 8.45466839 9.87890625 9.97265625 C9.85529526 10.77029892 9.83168427 11.56794159 9.80735779 12.38975525 C9.7305374 14.94750973 9.64659285 17.50497527 9.5625 20.0625 C9.50929767 21.79230338 9.45655717 23.52212103 9.40429688 25.25195312 C9.27489758 29.50148644 9.13910688 33.75077382 9 38 C8.34 38 7.68 38 7 38 C7 38.99 7 39.98 7 41 C5.68 40.67 4.36 40.34 3 40 C2.34 35.05 1.68 30.1 1 25 C-4.68064227 41.82523264 -4.68064227 41.82523264 -10.015625 58.76171875 C-11.27135423 62.89266927 -12.57245569 67.00861275 -13.875 71.125 C-14.12822021 71.92728027 -14.38144043 72.72956055 -14.64233398 73.55615234 C-15.95566042 77.71398591 -17.27769902 81.86879085 -18.61328125 86.01953125 C-21.37113752 94.61919793 -23.99434858 103.18568982 -26 112 C-26.66 112 -27.32 112 -28 112 C-28.12955078 112.82177734 -28.12955078 112.82177734 -28.26171875 113.66015625 C-29.3191307 119.62628789 -30.98692571 125.2261729 -32.96484375 130.95043945 C-34.94987472 136.72777922 -36.66395845 142.56826924 -38.30004883 148.45336914 C-39.2283767 151.71661739 -40.10062472 154.15093708 -42 157 C-43.65 156.67 -45.3 156.34 -47 156 C-47.33 156.99 -47.66 157.98 -48 159 C-49.32 158.67 -50.64 158.34 -52 158 C-51.79375 156.88625 -51.5875 155.7725 -51.375 154.625 C-51.36335407 151.33502533 -51.89873843 150.13074536 -53.9453125 147.48828125 C-58.29269686 143.14754427 -62.93515463 139.16124279 -67.60546875 135.17578125 C-71.68058943 131.47293913 -75.51560774 127.52377438 -79.36987305 123.59301758 C-82.44639829 120.47424241 -85.55838899 117.47177459 -88.8828125 114.6171875 C-93.62565619 110.52852915 -97.98576016 106.08655022 -102.375 101.625 C-103.96383525 100.01074338 -105.55486903 98.39864674 -107.1484375 96.7890625 C-107.84114746 96.08475098 -108.53385742 95.38043945 -109.24755859 94.65478516 C-110.91166413 92.92378526 -110.91166413 92.92378526 -113 92 C-113.22300781 92.54140625 -113.44601563 93.0828125 -113.67578125 93.640625 C-115.4208375 96.74981077 -117.75328449 99.17835265 -120.1875 101.75 C-121.1933307 102.83014996 -122.19854041 103.91087851 -123.203125 104.9921875 C-123.68845703 105.51264648 -124.17378906 106.03310547 -124.67382812 106.56933594 C-128.42717835 110.61842141 -132.00480627 114.82152098 -135.56640625 119.0390625 C-142.90180086 127.70805159 -150.51782873 136.06722866 -158.35986328 144.28076172 C-159.7763895 145.76560507 -161.18397021 147.25897284 -162.58984375 148.75390625 C-163.28207031 149.47449219 -163.97429687 150.19507813 -164.6875 150.9375 C-165.24824219 151.52402344 -165.80898437 152.11054688 -166.38671875 152.71484375 C-168.23029226 154.18345316 -169.69642161 154.60352354 -172 155 C-174.36990129 151.8760392 -175.24002701 149.16984674 -175.8125 145.375 C-176.70076648 139.84215373 -178.23828534 134.63873556 -179.9375 129.3125 C-180.19055908 128.5169873 -180.44361816 127.72147461 -180.7043457 126.90185547 C-182.09858034 122.59158916 -183.59023044 118.33433769 -185.20629883 114.10253906 C-186.05749307 111.84769907 -186.86360307 109.579166 -187.671875 107.30859375 C-189.64527623 101.86482549 -191.76160682 96.4818687 -193.890625 91.09765625 C-194.24225708 90.20662201 -194.59388916 89.31558777 -194.95617676 88.39755249 C-196.42824826 84.66837935 -197.90086476 80.93947298 -199.38378906 77.21459961 C-200.47558874 74.46968621 -201.55881298 71.72151846 -202.640625 68.97265625 C-203.14677338 67.71014793 -203.14677338 67.71014793 -203.66314697 66.4221344 C-203.97056824 65.6370903 -204.2779895 64.8520462 -204.59472656 64.04321289 C-205.00298676 63.01376305 -205.00298676 63.01376305 -205.41949463 61.96351624 C-206 60 -206 60 -206 56 C-204.68 56 -203.36 56 -202 56 C-202 56.66 -202 57.32 -202 58 C-201.01 58.33 -200.02 58.66 -199 59 C-197.8520817 61.48416694 -196.89652502 63.86382992 -196 66.4375 C-195.73654785 67.16598145 -195.4730957 67.89446289 -195.20166016 68.64501953 C-193.55792196 73.24198358 -192.08655803 77.86961228 -190.75268555 82.56616211 C-190.02938565 84.90498035 -189.1808849 87.12118149 -188.24609375 89.3828125 C-185.81555955 95.38616563 -183.60609755 101.464589 -181.39541626 107.55169678 C-177.08035666 119.42745807 -172.66272654 131.25565808 -168 143 C-165.67568872 143.23162762 -165.67568872 143.23162762 -163.56640625 140.6484375 C-162.5578733 139.56397155 -161.55711357 138.47224607 -160.5625 137.375 C-160.02826416 136.79105469 -159.49402832 136.20710937 -158.94360352 135.60546875 C-154.77090222 130.98514257 -150.88911644 126.18030736 -147.08959961 121.25146484 C-143.04800411 116.01308975 -138.80762093 110.96471656 -134.5078125 105.9375 C-133.23786642 104.44996191 -131.96873643 102.9607832 -130.74951172 101.43139648 C-128.07270249 98.08878456 -125.33671362 95.56615526 -121.875 93.0625 C-117.5145327 89.69481767 -115.535948 87.26610744 -114 82 C-110.47875838 82.55913049 -109.15227979 83.5887045 -107.00390625 86.39453125 C-106.4517041 87.09715088 -105.89950195 87.79977051 -105.33056641 88.52368164 C-104.45537354 89.65664673 -104.45537354 89.65664673 -103.5625 90.8125 C-98.12655516 97.64358001 -92.43263221 103.64670778 -85.90234375 109.421875 C-83.39963595 111.6450071 -81.02801635 113.92179714 -78.6875 116.3125 C-75.62611173 119.41862672 -72.43736042 122.30784074 -69.1328125 125.15234375 C-66.72623179 127.2371655 -64.36235055 129.36521533 -62 131.5 C-57.70405255 135.37699282 -53.36848754 139.20502898 -49 143 C-46.83998236 138.19595 -45.15027631 133.42510004 -43.73828125 128.34765625 C-40.85456723 118.2763783 -37.52914241 108.36427979 -34.1875 98.4375 C-33.58369909 96.63616331 -32.98018202 94.83473145 -32.37695312 93.03320312 C-30.92122349 88.68770307 -29.46171183 84.34349127 -28 80 C-27.34 80 -26.68 80 -26 80 C-25.73719238 78.71593262 -25.47438477 77.43186523 -25.20361328 76.10888672 C-24.07031541 71.01978697 -22.47109214 66.17127204 -20.7421875 61.2578125 C-20.2803154 59.92253006 -20.2803154 59.92253006 -19.80911255 58.56027222 C-18.83575929 55.74686268 -17.85613988 52.93570273 -16.875 50.125 C-15.57544631 46.40024513 -14.28204327 42.67343505 -12.9921875 38.9453125 C-12.5422493 37.66565109 -12.5422493 37.66565109 -12.08322144 36.36013794 C-11.80938629 35.56856293 -11.53555115 34.77698792 -11.25341797 33.96142578 C-11.01074188 33.26687286 -10.7680658 32.57231995 -10.51803589 31.85671997 C-9.86562904 29.83966611 -9.86562904 29.83966611 -10 27 C-10.45890625 27.44472656 -10.9178125 27.88945313 -11.390625 28.34765625 C-12.31101563 29.19650391 -12.31101563 29.19650391 -13.25 30.0625 C-13.85328125 30.63097656 -14.4565625 31.19945313 -15.078125 31.78515625 C-17 33 -17 33 -19.234375 32.68359375 C-19.81703125 32.45800781 -20.3996875 32.23242188 -21 32 C-19.49499231 27.2547993 -16.85377759 24.16211353 -13.625 20.5 C-6.87754282 13.30801127 -6.87754282 13.30801127 -2.3125 4.75 C-1 1 -1 1 0 0 Z " fill="#36A14A" transform="translate(231,38)"/>
</svg>
